<svg width="85" height="101" viewBox="0 0 85 101" fill="none" xmlns="http://www.w3.org/2000/svg">
<path opacity="0.2" d="M80.9375 4.375V81.25H15.5938C12.5355 81.25 9.60245 82.4649 7.43993 84.6274C5.2774 86.79 4.0625 89.723 4.0625 92.7812V15.9062C4.0625 12.848 5.2774 9.91495 7.43993 7.75243C9.60245 5.5899 12.5355 4.375 15.5938 4.375H80.9375Z" fill="#BB0013"/>
<path d="M80.9375 0.53125H15.5938C11.516 0.53125 7.60535 2.15111 4.72198 5.03448C1.83861 7.91785 0.21875 11.8285 0.21875 15.9062V96.625C0.21875 97.6444 0.623716 98.6221 1.34456 99.3429C2.0654 100.064 3.04307 100.469 4.0625 100.469H73.25C74.2694 100.469 75.2471 100.064 75.9679 99.3429C76.6888 98.6221 77.0938 97.6444 77.0938 96.625C77.0938 95.6056 76.6888 94.6279 75.9679 93.9071C75.2471 93.1862 74.2694 92.7812 73.25 92.7812H7.90625C7.90625 90.7424 8.71618 88.7871 10.1579 87.3454C11.5996 85.9037 13.5549 85.0938 15.5938 85.0938H80.9375C81.9569 85.0938 82.9346 84.6888 83.6554 83.9679C84.3763 83.2471 84.7812 82.2694 84.7812 81.25V4.375C84.7812 3.35557 84.3763 2.3779 83.6554 1.65706C82.9346 0.936215 81.9569 0.53125 80.9375 0.53125ZM77.0938 77.4062H15.5938C12.8942 77.4026 10.2418 78.1137 7.90625 79.4675V15.9062C7.90625 13.8674 8.71618 11.9121 10.1579 10.4704C11.5996 9.02868 13.5549 8.21875 15.5938 8.21875H77.0938V77.4062Z" fill="#BB0013"/>
</svg>
